<svg width="14" height="14" viewBox="0 0 14 14" fill="none" xmlns="http://www.w3.org/2000/svg">
<path d="M7 0.333336C3.32 0.333336 0.333333 3.32 0.333333 7C0.333333 10.68 3.32 13.6667 7 13.6667C10.68 13.6667 13.6667 10.68 13.6667 7C13.6667 3.32 10.68 0.333336 7 0.333336ZM7 12.3333C4.05333 12.3333 1.66667 9.94667 1.66667 7C1.66667 5.76667 2.08667 4.63334 2.79333 3.73334L10.2667 11.2067C9.36667 11.9133 8.23333 12.3333 7 12.3333ZM11.2067 10.2667L3.73333 2.79334C4.63333 2.08667 5.76667 1.66667 7 1.66667C9.94667 1.66667 12.3333 4.05334 12.3333 7C12.3333 8.23334 11.9133 9.36667 11.2067 10.2667Z" fill="#EB6F62"/>
</svg>
