<svg width="14" height="12" viewBox="0 0 14 12" fill="none" xmlns="http://www.w3.org/2000/svg">
<path d="M7.499 9.00003H6.501C6.224 9.00003 6 9.22403 6 9.50003V10.499C6 10.776 6.224 11 6.501 11H7.5C7.776 11 8 10.776 8 10.499V9.50003C8 9.22403 7.776 9.00003 7.499 9.00003ZM8 4.50002C8 4.22402 7.775 3.99902 7.499 3.99902H6.501C6.224 3.99902 6 4.22402 6 4.50002V7.50002C6 7.77602 6.225 8.00103 6.501 8.00103H7.5C7.776 8.00103 8 7.77602 8 7.50002V4.50002ZM7 12.001H0L7 -0.000976562L14 12.001H7Z" fill="#EB6F62"/>
</svg>
