<svg width="10" height="14" viewBox="0 0 10 14" fill="none" xmlns="http://www.w3.org/2000/svg">
<path d="M6.50899 1.90802C6.50899 1.73002 6.36299 1.58202 6.18699 1.58202H3.83199C3.65599 1.58202 3.51199 1.73002 3.51199 1.90802V2.60202H6.50999L6.50899 1.90802ZM9.02 4.12502C9.009 4.12502 9.009 4.12502 8.999 4.12502H1.00099C0.98999 4.12502 0.98999 4.12502 0.97999 4.12502C0.63799 4.11502 0.35699 3.83202 0.35699 3.47402V3.25302C0.35699 2.89502 0.64799 2.60202 1.00099 2.60202H1.56099H2.12099C2.29699 2.60202 2.43099 2.46502 2.43099 2.28702V1.15002C2.43199 0.79302 2.72299 0.49902 3.07499 0.49902H6.93299C7.286 0.49902 7.577 0.79202 7.577 1.15002V2.29602C7.577 2.47402 7.712 2.61102 7.887 2.61102H8.447H9.007C9.36 2.61102 9.651 2.89402 9.641 3.25202V3.47302C9.642 3.83102 9.362 4.11502 9.02 4.12502ZM7.847 7.26802C7.847 6.97302 7.619 6.74102 7.328 6.74102C7.038 6.74102 6.81099 6.97202 6.81099 7.26802V11.324C6.81099 11.619 7.039 11.851 7.328 11.851C7.619 11.851 7.847 11.62 7.847 11.324V7.26802ZM5.52399 7.26802C5.52399 6.97302 5.29599 6.74102 5.00499 6.74102C4.71399 6.74102 4.48499 6.97302 4.48499 7.26802V11.324C4.48499 11.619 4.71299 11.851 5.00399 11.851C5.29499 11.851 5.52299 11.62 5.52299 11.324V7.26802H5.52399ZM3.19899 7.26802C3.19899 6.97302 2.97099 6.74102 2.68199 6.74102C2.39099 6.74102 2.16299 6.97202 2.16299 7.26802V11.324C2.16299 11.619 2.39099 11.851 2.68199 11.851C2.97199 11.851 3.19899 11.62 3.19899 11.324V7.26802ZM8.397 13.499H1.60199C1.25799 13.499 0.97999 13.216 0.97999 12.869V5.17602C0.98999 5.17602 0.98999 5.17602 1.00099 5.17602H8.998C9.008 5.17602 9.019 12.87 9.019 12.87C9.02 13.216 8.739 13.499 8.397 13.499Z" fill="#EB6F62"/>
</svg>
