<svg width="20" height="20" viewBox="0 0 20 20" fill="none" xmlns="http://www.w3.org/2000/svg">
<path d="M9.99996 1.6665C5.39996 1.6665 1.66663 5.39984 1.66663 9.99984C1.66663 14.5998 5.39996 18.3332 9.99996 18.3332C14.6 18.3332 18.3333 14.5998 18.3333 9.99984C18.3333 5.39984 14.6 1.6665 9.99996 1.6665ZM10.8333 15.8332H9.16663V14.1665H10.8333V15.8332ZM12.5583 9.37484L11.8083 10.1415C11.2083 10.7498 10.8333 11.2498 10.8333 12.4998H9.16663V12.0832C9.16663 11.1665 9.54163 10.3332 10.1416 9.72484L11.175 8.67484C11.4833 8.37484 11.6666 7.95817 11.6666 7.49984C11.6666 6.58317 10.9166 5.83317 9.99996 5.83317C9.08329 5.83317 8.33329 6.58317 8.33329 7.49984H6.66663C6.66663 5.65817 8.15829 4.1665 9.99996 4.1665C11.8416 4.1665 13.3333 5.65817 13.3333 7.49984C13.3333 8.23317 13.0333 8.89984 12.5583 9.37484Z" fill="black" fill-opacity="0.87"/>
</svg>
