<svg width="122" height="24" viewBox="0 0 122 24" fill="none" xmlns="http://www.w3.org/2000/svg">
<path d="M21.6 5.59969C20.5 4.49969 19.4 5.19969 19 5.59969L14.2 10.6997L12.6 8.39969C12.5 8.19969 12.2 7.99969 11.8 7.99969C11.4 7.99969 11.1 8.09969 10.8 8.39969L4.50001 15.7997C4.10001 16.1997 3.50001 17.3997 4.50001 18.3997C5.60001 19.4997 6.70001 18.7997 7.10001 18.3997L11.9 13.2997L13.5 15.5997C13.8 15.8997 14.1 15.9997 14.5 15.9997C14.9 15.9997 15.2 15.8997 15.5 15.5997L21.9 8.19969C22 7.79969 22.6 6.49969 21.6 5.59969Z" fill="#03A9F4"/>
<path d="M21.6 15.0998C19.1 18.9998 15.9 19.8998 13.1 20.0998C12.4 20.0998 11.6 20.0998 10.9 19.8998C10.4 19.7998 9.79999 19.8998 9.49999 20.2998C8.69999 21.0998 9.09999 22.4998 10.2 22.6998C11.2 22.8998 12.2 22.9998 13.2 22.8998C19.3 22.5998 24.3 17.7998 23.9 10.7998C23.8 10.9998 22.6 13.5998 21.6 15.0998Z" fill="#03A9F4"/>
<path d="M4.20004 8.89978C6.70004 4.99978 9.90004 4.09978 12.7 3.89978C13.4 3.89978 14.2 3.89978 14.9 4.09978C15.4 4.19978 16 4.09978 16.3 3.69978C17.1 2.89978 16.7 1.49978 15.6 1.29978C14.6 1.09978 13.6 0.999777 12.6 1.09978C6.50004 1.19978 1.60004 6.09978 2.00004 12.9998C2.00004 12.9998 3.20004 10.3998 4.20004 8.89978Z" fill="#03A9F4"/>
<path d="M34.6 12V17.4C34.6 18.4 33.8 19.2 32.8 19.2C31.8 19.2 31 18.4 31 17.4V8.4C31 7.2 31.7 6.3 32.8 6.3C33.6 6.3 34.6 6.9 34.6 7.7C35.7 6.6 36.9 6 38.3 6C39.7 6 40.8 6.5 41.7 7.4C42.6 8.4 43.1 9.6 43.1 11.2V17.2C43.1 18.2 42.3 19 41.3 19C40.3 19 39.5 18.2 39.5 17.2V11.7C39.5 9.7 38.8 8.7 37.3 8.7C36.6 8.7 36 9 35.4 9.5C34.9 10.2 34.6 10.9 34.6 12Z" fill="#607D8B"/>
<path d="M55.2 16.1C55.8 16.8 55.7 17.9 54.9 18.4C53.8 19.1 52.6 19.4 51.2 19.4C49.2 19.4 47.6 18.8 46.3 17.6C45 16.4 44.4 14.8 44.4 12.7C44.4 10.7 45.1 9.1 46.4 7.9C47.7 6.6 49.2 6 51 6C52.8 6 54.3 6.5 55.5 7.6C56.7 8.7 57.4 10.1 57.4 12C57.4 13.1 56.5 13.9 55.5 13.9H48C48.1 14.6 48.5 15.2 49.1 15.6C49.7 16 50.4 16.3 51.2 16.3C52 16.3 52.8 16.1 53.4 15.7C54 15.5 54.8 15.6 55.2 16.1ZM52.9 9.6C52.4 9.2 51.8 9 51.1 9C50.4 9 49.7 9.2 49.1 9.6C48.5 10 48.2 10.6 48.1 11.4H53.8C53.7 10.6 53.4 10 52.9 9.6Z" fill="#607D8B"/>
<path d="M60.5 19.1998C59.5 19.1998 58.7 18.3998 58.7 17.3998V3.0998C58.7 2.0998 59.5 1.2998 60.5 1.2998C61.5 1.2998 62.2999 2.0998 62.2999 3.0998V17.2998C62.2999 18.3998 61.5 19.1998 60.5 19.1998Z" fill="#607D8B"/>
<path d="M74.4001 15.0996C74.4001 16.3996 73.9001 17.3996 73.0001 18.1996C72.1001 18.9996 70.9001 19.3996 69.4001 19.3996C68.4001 19.3996 67.4001 19.1996 66.4001 18.8996C65.8001 18.6996 65.3001 18.4996 64.8001 18.1996C64.1001 17.7996 63.9001 16.8996 64.4001 16.1996V16.0996C64.8001 15.4996 65.6001 15.3996 66.2001 15.6996C67.2001 16.2996 68.3001 16.5996 69.5001 16.5996C70.0001 16.5996 70.3001 16.4996 70.6001 16.2996C70.9001 16.0996 71.0001 15.8996 71.0001 15.5996C71.0001 15.2996 70.8001 14.9996 70.4001 14.7996C70.0001 14.4996 69.5001 14.2996 68.8001 14.0996C68.1001 13.8996 67.5001 13.6996 67.2001 13.4996C66.8001 13.2996 66.4001 13.0996 65.9001 12.7996C64.9001 12.1996 64.4001 11.2996 64.4001 10.0996C64.4001 8.89961 64.9001 7.89961 65.8001 7.19961C66.8001 6.39961 68.0001 6.09961 69.5001 6.09961C70.6001 6.09961 71.7001 6.39961 72.8001 6.89961C73.5001 7.19961 73.8001 8.09961 73.4001 8.79961C73.0001 9.39961 72.3001 9.69961 71.6001 9.39961C71.0001 8.99961 70.2001 8.79961 69.5001 8.79961C68.4001 8.79961 67.8001 9.09961 67.8001 9.69961C67.8001 9.99961 68.0001 10.2996 68.3001 10.4996C68.7001 10.6996 69.2001 10.8996 70.1001 11.1996C70.9001 11.4996 71.5001 11.6996 71.8001 11.7996C72.1001 11.8996 72.6001 12.0996 73.0001 12.3996C74.0001 12.9996 74.4001 13.8996 74.4001 15.0996Z" fill="#607D8B"/>
<path d="M86 16.1C86.6 16.8 86.5 17.9 85.7 18.4C84.6 19.1 83.4 19.4 82 19.4C80 19.4 78.4 18.8 77.1 17.6C75.8 16.4 75.2 14.8 75.2 12.7C75.2 10.7 75.9 9.1 77.2 7.9C78.4 6.6 80 6 81.8 6C83.6 6 85.1 6.5 86.3 7.6C87.5 8.7 88.2 10.1 88.2 12C88.2 13.1 87.3 13.9 86.3 13.9H78.8C78.9 14.6 79.3 15.2 79.9 15.6C80.5 16 81.2 16.3 82 16.3C82.8 16.3 83.6 16.1 84.2 15.7C84.8 15.5 85.5 15.6 86 16.1ZM83.6 9.6C83.1 9.2 82.5 9 81.8 9C81.1 9 80.4 9.2 79.8 9.6C79.2 10 78.9 10.6 78.8 11.4H84.5C84.4 10.6 84.1 10 83.6 9.6Z" fill="#607D8B"/>
<path d="M93.6 8.7999V14.5999C93.6 15.0999 93.7 15.4999 94 15.7999C94.3 16.0999 94.6 16.1999 94.9 16.1999C95.2 16.1999 95.4 16.1999 95.6 16.0999C96.3 15.7999 97 16.0999 97.4 16.7999C97.8 17.4999 97.5 18.2999 96.9 18.6999C96.1 19.1999 95.3 19.3999 94.5 19.3999C93.3 19.3999 92.2 18.9999 91.4 18.1999C90.5 17.3999 90.1 16.2999 90.1 14.8999V8.8999H89.9C89.2 8.8999 88.6 8.2999 88.6 7.5999C88.6 6.8999 89.2 6.2999 89.9 6.2999H90V4.1999C90 3.1999 90.8 2.3999 91.8 2.3999C92.8 2.3999 93.6 3.1999 93.6 4.1999V6.2999H95.4C96.1 6.2999 96.7 6.8999 96.7 7.5999C96.7 8.2999 96.1 8.8999 95.4 8.8999H93.6V8.7999Z" fill="#607D8B"/>
<path d="M102.8 8.7999V14.5999C102.8 15.0999 102.9 15.4999 103.2 15.7999C103.5 16.0999 103.8 16.1999 104.1 16.1999C104.4 16.1999 104.6 16.1999 104.8 16.0999C105.5 15.7999 106.2 16.0999 106.6 16.7999C107 17.4999 106.7 18.2999 106.1 18.6999C105.3 19.1999 104.5 19.3999 103.7 19.3999C102.5 19.3999 101.4 18.9999 100.6 18.1999C99.7 17.3999 99.3 16.2999 99.3 14.8999V8.8999H99.1C98.4 8.8999 97.8 8.2999 97.8 7.5999C97.8 6.8999 98.4 6.2999 99.1 6.2999H99.3V4.1999C99.3 3.1999 100.1 2.3999 101.1 2.3999C102.1 2.3999 102.9 3.1999 102.9 4.1999V6.2999H104.7C105.4 6.2999 106 6.8999 106 7.5999C106 8.2999 105.4 8.8999 104.7 8.8999H102.8V8.7999Z" fill="#607D8B"/>
<path d="M117.9 16.0996C118.5 16.7996 118.4 17.8996 117.6 18.3996C116.5 19.0996 115.3 19.3996 113.9 19.3996C111.9 19.3996 110.3 18.7996 109 17.5996C107.7 16.3996 107.1 14.7996 107.1 12.6996C107.1 10.6996 107.8 9.09961 109.1 7.89961C110.4 6.69961 111.9 6.09961 113.7 6.09961C115.5 6.09961 117 6.59961 118.2 7.69961C119.4 8.79961 120.1 10.1996 120.1 12.0996C120.1 13.1996 119.2 13.9996 118.2 13.9996H110.7C110.8 14.6996 111.2 15.2996 111.8 15.6996C112.4 16.0996 113.1 16.3996 113.9 16.3996C114.7 16.3996 115.5 16.1996 116.1 15.7996C116.6 15.4996 117.4 15.5996 117.9 16.0996ZM115.5 9.59961C115 9.19961 114.4 8.99961 113.7 8.99961C113 8.99961 112.3 9.19961 111.7 9.59961C111.1 9.99961 110.8 10.5996 110.7 11.3996H116.4C116.3 10.5996 116 9.99961 115.5 9.59961Z" fill="#607D8B"/>
</svg>
